<?xml version="1.0" standalone="no"?>
<!DOCTYPE svg PUBLIC "-//W3C//DTD SVG 20010904//EN" "http://www.w3.org/TR/2001/REC-SVG-20010904/DTD/svg10.dtd">
<svg xmlns="http://www.w3.org/2000/svg" version="1.0" width="512.000000pt" height="512.000000pt" viewBox="0 0 512.000000 512.000000" preserveAspectRatio="xMidYMid meet">
<metadata>
Created by potrace 1.16, written by Peter Selinger 2001-2019
<meta name="Producer" content="Online-Convert"/></metadata>
<g transform="translate(0.000000,512.000000) scale(0.100000,-0.100000)" fill="#000000" stroke="none">
<path d="M1565 4789 c-157 -23 -317 -80 -430 -154 -89 -58 -222 -197 -277 -290 -136 -229 -208 -536 -208 -888 0 -310 39 -466 217 -872 111 -251 137 -338 182 -606 134 -793 324 -1326 552 -1550 78 -77 151 -112 237 -112 99 -1 155 18 216 74 117 107 155 296 156 784 1 250 28 402 97 543 61 123 164 211 248 212 86 0 202 -98 260 -223 70 -147 95 -299 95 -577 0 -573 72 -767 302 -810 362 -69 671 534 862 1687 40 240 72 341 194 618 151 342 190 492 199 767 19 600 -169 1061 -517 1264 -89 52 -151 77 -280 111 -80 21 -124 26 -285 30 -168 4 -202 2 -294 -17 -58 -11 -139 -35 -182 -51 -101 -39 -267 -124 -299 -154 -58 -53 -264 -141 -438 -185 -191 -48 -264 -59 -293 -45 -45 24 -53 78 -16 112 12 12 49 26 82 33 183 36 465 121 465 141 0 10 -190 96 -262 118 -126 38 -224 51 -377 50 -80 -1 -173 -5 -206 -10z"/>
</g>
</svg>
