<?xml version="1.0" encoding="UTF-8" standalone="no"?>
<!DOCTYPE svg PUBLIC "-//W3C//DTD SVG 1.1//EN" "http://www.w3.org/Graphics/SVG/1.1/DTD/svg11.dtd">
<svg width="100%" height="100%" viewBox="0 0 1024 1024" version="1.1" xmlns="http://www.w3.org/2000/svg" xmlns:xlink="http://www.w3.org/1999/xlink" xml:space="preserve" xmlns:serif="http://www.serif.com/" style="fill-rule:evenodd;clip-rule:evenodd;stroke-linejoin:round;stroke-miterlimit:2;">
    <g transform="matrix(4.33094,0,0,4.33094,-1165.63,-319.825)">
        <circle cx="468.649" cy="159.649" r="21.667"/>
    </g>
    <g transform="matrix(4.33094,0,0,4.33094,-1401.4,-65.2666)">
        <circle cx="468.649" cy="159.649" r="21.667"/>
    </g>
    <g transform="matrix(4.10965,0,0,4.10965,-1534.59,-292.716)">
        <path d="M526.816,155.164L509.171,137.519L502.019,144.671L519.664,162.316L502.019,179.96L509.171,187.112L526.816,169.468L544.46,187.112L551.612,179.96L533.968,162.316L551.612,144.671L544.46,137.519L526.816,155.164Z"/>
    </g>
    <g transform="matrix(4.10965,0,0,4.10965,-1297.71,-515.177)">
        <path d="M526.816,155.164L509.171,137.519L502.019,144.671L519.664,162.316L502.019,179.96L509.171,187.112L526.816,169.468L544.46,187.112L551.612,179.96L533.968,162.316L551.612,144.671L544.46,137.519L526.816,155.164Z"/>
    </g>
    <g transform="matrix(4.10965,0,0,4.10965,-1303.25,-35.9437)">
        <path d="M526.816,155.164L509.171,137.519L502.019,144.671L519.664,162.316L502.019,179.96L509.171,187.112L526.816,169.468L544.46,187.112L551.612,179.96L533.968,162.316L551.612,144.671L544.46,137.519L526.816,155.164Z"/>
    </g>
    <g transform="matrix(4.10965,0,0,4.10965,-1261.19,-292.716)">
        <path d="M426.359,161.621L426.466,161.621L426.412,161.677L426.466,161.732L426.359,161.732L401.799,187.288L393.466,179.621L411.41,161.677L393.466,143.732L401.799,136.066L426.359,161.621Z"/>
    </g>
    <g transform="matrix(-4.10965,-5.03287e-16,5.03287e-16,-4.10965,1811.09,817.743)">
        <path d="M426.359,161.621L426.466,161.621L426.412,161.677L426.466,161.732L426.359,161.732L401.799,187.288L393.466,179.621L411.41,161.677L393.466,143.732L401.799,136.066L426.359,161.621Z"/>
    </g>
    <g transform="matrix(2.51644e-16,4.10965,-4.10965,2.51644e-16,1299.43,-790.145)">
        <path d="M426.359,161.621L426.466,161.621L426.412,161.677L426.466,161.732L426.359,161.732L401.799,187.288L393.466,179.621L411.41,161.677L393.466,143.732L401.799,136.066L426.359,161.621Z"/>
    </g>
    <g transform="matrix(2.51644e-16,-4.10965,4.10965,2.51644e-16,-29.4375,1805.85)">
        <path d="M426.359,161.621L426.466,161.621L426.412,161.677L426.466,161.732L426.359,161.732L401.799,187.288L393.466,179.621L411.41,161.677L393.466,143.732L401.799,136.066L426.359,161.621Z"/>
    </g>
    <g transform="matrix(4.10965,0,0,4.10965,-1284.43,-309.317)">
        <path d="M407.777,203.355C421.299,203.355 432.277,214.333 432.277,227.855C432.277,241.377 421.299,252.355 407.777,252.355C394.255,252.355 383.277,241.377 383.277,227.855C383.277,214.333 394.255,203.355 407.777,203.355ZM407.777,215.605C414.538,215.605 420.027,221.094 420.027,227.855C420.027,234.616 414.538,240.105 407.777,240.105C401.016,240.105 395.527,234.616 395.527,227.855C395.527,221.094 401.016,215.605 407.777,215.605Z"/>
    </g>
    <g transform="matrix(4.10965,0,0,4.10965,-1516,-75.1147)">
        <path d="M407.777,203.355C421.299,203.355 432.277,214.333 432.277,227.855C432.277,241.377 421.299,252.355 407.777,252.355C394.255,252.355 383.277,241.377 383.277,227.855C383.277,214.333 394.255,203.355 407.777,203.355ZM407.777,215.605C414.538,215.605 420.027,221.094 420.027,227.855C420.027,234.616 414.538,240.105 407.777,240.105C401.016,240.105 395.527,234.616 395.527,227.855C395.527,221.094 401.016,215.605 407.777,215.605Z"/>
    </g>
</svg>
