<?xml version="1.0" encoding="UTF-8" standalone="no"?>
<!DOCTYPE svg PUBLIC "-//W3C//DTD SVG 1.1//EN" "http://www.w3.org/Graphics/SVG/1.1/DTD/svg11.dtd">
<svg width="100%" height="100%" viewBox="0 0 1024 1024" version="1.1" xmlns="http://www.w3.org/2000/svg" xmlns:xlink="http://www.w3.org/1999/xlink" xml:space="preserve" xmlns:serif="http://www.serif.com/" style="fill-rule:evenodd;clip-rule:evenodd;stroke-linejoin:round;stroke-miterlimit:2;">
    <g transform="matrix(1,0,0,1,-2148,0)">
        <rect id="Mesa-de-trabajo3" serif:id="Mesa de trabajo3" x="2148" y="0" width="1024" height="1024" style="fill:none;"/>
        <g id="Mesa-de-trabajo31" serif:id="Mesa de trabajo3">
            <g transform="matrix(1.74162,0,0,1.74488,1700.46,249.044)">
                <path d="M346.837,218.342L323.502,195.007L276.833,241.676L300.168,265.011L346.837,218.342ZM383.147,182.032L406.41,158.768L383.076,135.433L336.407,182.102L359.741,205.437L359.812,205.366L372.304,217.858L348.758,241.405L372.092,264.74L418.761,218.071L418.549,217.858L418.761,217.646L383.147,182.032ZM406.646,87.35L383.312,64.016L300.58,146.747L323.915,170.082L406.646,87.35ZM441.766,123.413L418.431,100.078L395.097,123.413L418.431,146.747L441.766,123.413Z"/>
            </g>
            <g transform="matrix(2.40596,0,0,2.40596,2554.74,70.9451)">
                <g id="path302" transform="matrix(2.34511,0,0,2.34511,-179.163,-269.592)">
                    <path d="M72.832,192.413L70.867,190.434L74.852,186.424L78.837,182.415L74.882,178.446L70.926,174.477L74.94,170.555L79.06,174.526L82.917,178.341L86.805,174.46L90.961,170.579L94.787,174.419L90.904,178.563L87.021,182.453L90.904,186.36L94.904,190.434L91.102,194.491L86.549,190.092L82.958,186.719L78.912,190.555L74.94,194.392L72.832,192.413ZM106.366,193.892C102.105,192.49 99.021,188.883 98.212,184.357C96.813,176.528 104.147,169.16 111.951,170.555C116.554,171.377 120.111,174.43 121.5,178.748C122.001,180.307 122.084,181.046 121.994,183.112C121.897,185.331 121.779,185.814 120.905,187.582C119.645,190.132 117.766,192.004 115.19,193.278C113.371,194.176 113.024,194.254 110.554,194.32C108.501,194.375 107.533,194.276 106.366,193.892ZM113.26,187.594C113.994,187.14 114.805,186.318 115.285,185.542C115.969,184.436 116.085,183.991 116.076,182.506C116.056,178.897 113.591,176.391 110.075,176.406C106.693,176.42 104.068,179.045 104.053,182.428C104.043,184.892 105.308,186.861 107.609,187.961C109.401,188.819 111.5,188.682 113.26,187.594ZM126.601,182.428L126.67,170.711L134.607,170.711C143.743,170.711 144.358,170.821 146.624,172.859C150.977,176.773 150.334,183.561 145.323,186.607C143.465,187.737 141.595,188.037 136.402,188.04L132.375,188.042L132.226,193.995L126.532,194.145L126.601,182.428ZM142.145,181.825C143.216,181.272 143.735,180.422 143.735,179.225C143.735,176.665 141.936,176.4 141.936,176.4L132.358,176.4L132.358,179.134C132.358,180.638 132.437,181.947 132.534,182.044C132.631,182.141 137.147,182.119 137.147,182.119C137.147,182.119 141.558,182.129 142.145,181.825Z" style="fill-rule:nonzero;"/>
                </g>
                <g id="path3021" serif:id="path302" transform="matrix(2.34511,0,0,2.34511,-115.875,-199.685)">
                    <path d="M72.832,192.413L70.867,190.434L74.852,186.424L78.837,182.415L74.882,178.446L70.926,174.477L74.94,170.555L79.06,174.526L82.917,178.341L86.805,174.46L90.961,170.579L94.787,174.419L90.904,178.563L87.021,182.453L90.904,186.36L94.904,190.434L91.102,194.491L86.549,190.092L82.958,186.719L78.912,190.555L74.94,194.392L72.832,192.413ZM106.366,193.892C102.105,192.49 99.021,188.883 98.212,184.357C96.813,176.528 104.147,169.16 111.951,170.555C116.554,171.377 120.111,174.43 121.5,178.748C122.001,180.307 122.084,181.046 121.994,183.112C121.897,185.331 121.779,185.814 120.905,187.582C119.645,190.132 117.766,192.004 115.19,193.278C113.371,194.176 113.024,194.254 110.554,194.32C108.501,194.375 107.533,194.276 106.366,193.892ZM113.26,187.594C113.994,187.14 114.805,186.318 115.285,185.542C115.969,184.436 116.085,183.991 116.076,182.506C116.056,178.897 113.591,176.391 110.075,176.406C106.693,176.42 104.068,179.045 104.053,182.428C104.043,184.892 105.308,186.861 107.609,187.961C109.401,188.819 111.5,188.682 113.26,187.594ZM126.601,182.428L126.67,170.711L134.607,170.711C143.743,170.711 144.358,170.821 146.624,172.859C150.977,176.773 150.334,183.561 145.323,186.607C143.465,187.737 141.595,188.037 136.402,188.04L132.375,188.042L132.226,193.995L126.532,194.145L126.601,182.428ZM142.145,181.825C143.216,181.272 143.735,180.422 143.735,179.225C143.735,176.665 141.936,176.4 141.936,176.4L132.358,176.4L132.358,179.134C132.358,180.638 132.437,181.947 132.534,182.044C132.631,182.141 137.147,182.119 137.147,182.119C137.147,182.119 141.558,182.129 142.145,181.825Z" style="fill-rule:nonzero;"/>
                </g>
            </g>
        </g>
    </g>
</svg>
